The Kings Of Limbs Radiohead Live From The Basement Mp4 1080p AAC Multichannel 320Kbps


Description
The Kings Of Limbs Radiohead Live From The Basement Mp4 1080p AAC Multichannel 320Kbps.mp4

Track Listing:

Bloom
The Daily Mail
Feral
Little by Little
Codex
Separator
Lotus Flower
Staircase
Morning Mr. Magpie
Give Up the Ghost

General
The Kings Of Limbs Radiohead Live From The Basement Mp4 1080p AAC Multichannel 320Kbps.mp4
Format : MPEG-4
Format profile : Base Media
Codec ID : isom
File size : 2.13 GiB
Duration : 1h 0mn
Overall bit rate mode : Variable
Overall bit rate : 5 011 Kbps
Encoded date : UTC 2012-12-24 03:17:22
Tagged date : UTC 2012-12-24 03:17:22

Video
ID : 1
Format : AVC
Format/Info : Advanced Video Codec
Format profile : High@L4.0
Format settings, CABAC : Yes
Format settings, ReFrames : 3 frames
Codec ID : avc1
Codec ID/Info : Advanced Video Coding
Duration : 1h 0mn
Bit rate mode : Variable
Bit rate : 4 688 Kbps
Maximum bit rate : 25.0 Mbps
Width : 1 920 pixels
Height : 1 080 pixels
Display aspect ratio : 16:9
Frame rate mode : Constant
Frame rate : 25.000 fps
Color space : YUV
Chroma subsampling : 4:2:0
Bit depth : 8 bits
Scan type : Progressive
Bits/(Pixel*Frame) : 0.090
Stream size : 1.99 GiB (94%)
Writing library : x264 core 125 r2208 d9d2288
Encoding settings : cabac=1 / ref=3 / deblock=1:0:0 / analyse=0x3:0x113 / me=hex / subme=7 / psy=1 / psy_rd=1.00:0.00 / mixed_ref=1 / me_range=16 / chroma_me=1 / trellis=1 / 8x8dct=1 / cqm=0 / deadzone=21,11 / fast_pskip=1 / chroma_qp_offset=-2 / threads=12 / lookahead_threads=2 / sliced_threads=0 / nr=0 / decimate=1 / interlaced=0 / bluray_compat=0 / constrained_intra=0 / bframes=3 / b_pyramid=0 / b_adapt=1 / b_bias=0 / direct=1 / weightb=1 / open_gop=0 / weightp=2 / keyint=250 / keyint_min=25 / scenecut=40 / intra_refresh=0 / rc_lookahead=40 / rc=crf / mbtree=1 / crf=24.0 / qcomp=0.60 / qpmin=0 / qpmax=69 / qpstep=4 / vbv_maxrate=25000 / vbv_bufsize=25000 / crf_max=0.0 / nal_hrd=vbr / ip_ratio=1.40 / aq=1:1.00
Encoded date : UTC 2012-12-24 03:17:22
Tagged date : UTC 2012-12-24 03:17:39

Audio
ID : 2
Format : AAC
Format/Info : Advanced Audio Codec
Format profile : LC
Codec ID : 40
Duration : 1h 0mn
Bit rate mode : Variable
Bit rate : 320 Kbps
Maximum bit rate : 330 Kbps
Channel(s) : 6 channels
Channel positions : Front: L C R, Side: L R, LFE
Sampling rate : 48.0 KHz
Compression mode : Lossy
Stream size : 139 MiB (6%)
Title : pév
Language : English
Encoded date : UTC 2012-12-24 03:17:37
Tagged date : UTC 2012-12-24 03:17:39 